<svg width="26" height="29" viewBox="0 0 26 29" fill="none" xmlns="http://www.w3.org/2000/svg">
<path d="M23.7772 18.7667L25.3799 19.728C25.4788 19.7872 25.5606 19.871 25.6174 19.9712C25.6743 20.0715 25.7041 20.1848 25.7041 20.3C25.7041 20.4152 25.6743 20.5285 25.6174 20.6288C25.5606 20.729 25.4788 20.8128 25.3799 20.872L13.6866 27.888C13.4792 28.0126 13.2418 28.0784 12.9999 28.0784C12.758 28.0784 12.5206 28.0126 12.3132 27.888L0.619888 20.872C0.521016 20.8128 0.439175 20.729 0.38235 20.6288C0.325524 20.5285 0.295654 20.4152 0.295654 20.3C0.295654 20.1848 0.325524 20.0715 0.38235 19.9712C0.439175 19.871 0.521016 19.7872 0.619888 19.728L2.22255 18.7667L12.9999 25.2333L23.7772 18.7667ZM23.7772 12.5L25.3799 13.4613C25.4788 13.5205 25.5606 13.6043 25.6174 13.7046C25.6743 13.8048 25.7041 13.9181 25.7041 14.0333C25.7041 14.1486 25.6743 14.2618 25.6174 14.3621C25.5606 14.4623 25.4788 14.5461 25.3799 14.6053L12.9999 22.032L0.619888 14.6053C0.521016 14.5461 0.439175 14.4623 0.38235 14.3621C0.325524 14.2618 0.295654 14.1486 0.295654 14.0333C0.295654 13.9181 0.325524 13.8048 0.38235 13.7046C0.439175 13.6043 0.521016 13.5205 0.619888 13.4613L2.22255 12.5L12.9999 18.9667L23.7772 12.5ZM13.6852 0.245333L25.3799 7.26133C25.4788 7.32052 25.5606 7.40433 25.6174 7.50458C25.6743 7.60483 25.7041 7.7181 25.7041 7.83333C25.7041 7.94857 25.6743 8.06184 25.6174 8.16209C25.5606 8.26233 25.4788 8.34614 25.3799 8.40533L12.9999 15.832L0.619888 8.40667C0.521016 8.34748 0.439175 8.26367 0.38235 8.16342C0.325524 8.06317 0.295654 7.9499 0.295654 7.83467C0.295654 7.71943 0.325524 7.60616 0.38235 7.50591C0.439175 7.40567 0.521016 7.32186 0.619888 7.26267L12.3132 0.246666C12.5206 0.122075 12.758 0.0562534 12.9999 0.0562534C13.2418 0.0562534 13.4792 0.122075 13.6866 0.246666M12.9999 2.94267L4.84922 7.83333L12.9999 12.724L21.1506 7.83333L12.9999 2.94267Z" fill="#03386E"/>
</svg>
